<?xml version="1.0" encoding="UTF-8" standalone="no"?>
<svg
   width="10"
   height="10"
   viewBox="0 0 2.6458333 2.6458333"
   version="1.1"
   id="svg1"
   sodipodi:docname="leaf.svg"
   inkscape:version="1.3.2 (091e20e, 2023-11-25, custom)"
   xmlns:inkscape="http://www.inkscape.org/namespaces/inkscape"
   xmlns:sodipodi="http://sodipodi.sourceforge.net/DTD/sodipodi-0.dtd"
   xmlns="http://www.w3.org/2000/svg"
   xmlns:svg="http://www.w3.org/2000/svg"
   xmlns:rdf="http://www.w3.org/1999/02/22-rdf-syntax-ns#"
   xmlns:cc="http://creativecommons.org/ns#"
   xmlns:dc="http://purl.org/dc/elements/1.1/">
  <defs
     id="defs1">
    <inkscape:path-effect
       effect="powerstroke"
       id="path-effect4"
       is_visible="true"
       lpeversion="1.3"
       scale_width="1"
       interpolator_type="CentripetalCatmullRom"
       interpolator_beta="0.75"
       start_linecap_type="round"
       end_linecap_type="round"
       offset_points="46.740904,0.062641295"
       linejoin_type="spiro"
       miter_limit="4"
       not_jump="true"
       sort_points="true"
       message="&lt;b&gt;Ctrl + click&lt;/b&gt; on existing node and move it" />
    <inkscape:path-effect
       effect="simplify"
       id="path-effect3"
       is_visible="true"
       lpeversion="1.3"
       threshold="0.012"
       steps="1"
       smooth_angles="0"
       helper_size="0"
       simplify_individual_paths="false"
       simplify_just_coalesce="false"
       step="1" />
    <inkscape:path-effect
       effect="bspline"
       id="path-effect2"
       is_visible="true"
       lpeversion="1.3"
       weight="33.333333"
       steps="2"
       helper_size="0"
       apply_no_weight="true"
       apply_with_weight="true"
       only_selected="false"
       uniform="false" />
    <inkscape:path-effect
       effect="bspline"
       id="path-effect1"
       is_visible="true"
       lpeversion="1.3"
       weight="33.333333"
       steps="2"
       helper_size="0"
       apply_no_weight="true"
       apply_with_weight="true"
       only_selected="false"
       uniform="false" />
  </defs>
  <sodipodi:namedview
     id="base"
     pagecolor="#ffffff"
     bordercolor="#000000"
     borderopacity="0.3"
     inkscape:pageopacity="0.0"
     inkscape:pageshadow="2"
     inkscape:zoom="63.356767"
     inkscape:cx="5.6347572"
     inkscape:cy="6.0530235"
     inkscape:document-units="px"
     inkscape:showpageshadow="2"
     inkscape:pagecheckerboard="0"
     inkscape:deskcolor="#d1d1d1"
     showgrid="true"
     showguides="true"
     inkscape:lockguides="false"
     inkscape:window-width="2560"
     inkscape:window-height="1387"
     inkscape:window-x="-8"
     inkscape:window-y="-8"
     inkscape:window-maximized="1"
     inkscape:current-layer="svg1">
    <inkscape:grid
       id="grid1"
       units="mm"
       originx="0"
       originy="0"
       spacingx="0.99999999"
       spacingy="0.99999999"
       empcolor="#0099e5"
       empopacity="0.30196078"
       color="#0099e5"
       opacity="0.14901961"
       empspacing="5"
       dotted="false"
       gridanglex="30"
       gridanglez="30"
       visible="true" />
    <sodipodi:guide
       position="-1.1525998,1.32619"
       orientation="0,-1"
       id="guide6"
       inkscape:locked="false" />
    <sodipodi:guide
       position="1.3154672,1.8816095"
       orientation="1,0"
       id="guide7"
       inkscape:locked="false" />
  </sodipodi:namedview>
  <metadata
     id="metadata1">
    <rdf:RDF>
      <cc:Work
         rdf:about="">
        <dc:format>image/svg+xml</dc:format>
        <dc:type
           rdf:resource="http://purl.org/dc/dcmitype/StillImage" />
      </cc:Work>
    </rdf:RDF>
  </metadata>
  <rect
     style="fill:none;stroke-width:0.264583"
     id="rect2"
     width="0.87702286"
     height="0.8770228"
     x="0.89790332"
     y="0.50568396" />
  <path
     style="fill:#008000;stroke-width:0.213609"
     d="m 1.1388192,1.3128703 c 6.215e-4,-0.010365 -0.00608,-0.019364 -0.00757,-0.029298 -0.00213,-0.014302 -3.88e-4,-0.030773 -0.00252,-0.045075 -0.00202,-0.013589 -0.00524,-0.027018 -0.00757,-0.040568 -0.00206,-0.011972 -0.0022,-0.024215 -0.00505,-0.03606 -0.00549,-0.022904 -0.00603,-0.00434 -0.010088,-0.031552 -7.773e-4,-0.00521 4.203e-4,-0.010531 0,-0.015776 -4.226e-4,-0.0053 -0.0021,-0.010477 -0.00252,-0.015776 -0.00213,-0.026692 0,-0.054373 0,-0.081135 0,-0.018722 -0.00318,-0.0401322 0,-0.0585969 0.00238,-0.0138407 0.011029,-0.0251143 0.015132,-0.0383134 0.003,-0.009657 0.00402,-0.0197899 0.00757,-0.0292984 0.00155,-0.004154 0.00568,-0.007231 0.00757,-0.0112693 0.00604,-0.0129553 0.00788,-0.0271845 0.01261,-0.0405678 0.00789,-0.022344 0.017854,-0.0437616 0.02774,-0.0653584 0.012387,-0.0270608 0.025599,-0.059277 0.04035,-0.0856423 0.00219,-0.003915 0.00553,-0.007281 0.00757,-0.0112689 0.0022,-0.004327 0.00266,-0.009272 0.00505,-0.0135227 0.00188,-0.003358 0.00541,-0.005793 0.00757,-0.009015 0.00853,-0.0127054 0.016865,-0.0255153 0.025219,-0.0383136 0.017539,-0.0268699 0.030589,-0.0555136 0.050437,-0.0811348 0.00345,-0.004454 0.00672,-0.009015 0.010088,-0.0135224 0.00252,-0.005259 0.00421,-0.0109036 0.00757,-0.0157762 0.00344,-0.004996 0.00887,-0.008698 0.01261,-0.0135225 0.014519,-0.0187424 0.024317,-0.0406874 0.04035,-0.0585974 0.00297,-0.003318 0.00711,-0.005697 0.010088,-0.009015 0.013467,-0.0150443 0.024524,-0.032042 0.037828,-0.0473286 0.014847,-0.0170595 0.036328,-0.0354502 0.047916,-0.0540899 0.00219,-0.003537 0.00272,-0.0078 0.00505,-0.0112688 0.00277,-0.004125 0.00711,-0.007267 0.010088,-0.0112688 0.014034,-0.0188135 0.023972,-0.0421055 0.032784,-0.0631049 0.00477,-0.0113639 0.011632,-0.0220792 0.015132,-0.0338062 0.00175,-0.005852 6.598e-4,-0.0122061 0.00252,-0.01803 0.00653,-0.0204223 0.00779,-0.006095 0.010088,-0.0225374 0.00304,-0.0217369 -0.00192,-0.0435189 0.00252,-0.06535856 0.0026,-0.0128046 0.00685,-0.01771965 0.01261,-0.02929868 0.0016,-0.0032146 0.00427,-0.01774707 0.00505,-0.02028364 0.00489,-0.01603489 0.010088,-0.03064299 0.010088,-0.04732862 0,-7.512013e-4 0,0.00150179 0,0.00225353 0,0.0045079 0,0.00901505 0,0.01352245 0,0.03273356 -6.395e-4,-0.02291581 0.00505,0.04056744 8.044e-4,0.0089863 -4.587e-4,0.01803935 0,0.02704499 3.842e-4,0.0075418 0.00215,0.01499456 0.00252,0.02253742 0.00105,0.0216515 0,0.043663 0,0.0653586 0,0.13672717 0,0.27345437 0,0.41018147 0,0.0226196 0.00102,0.0239659 -0.00252,0.0450751 -0.00139,0.008306 -0.00423,0.0164238 -0.00505,0.0247909 -0.00249,0.0256 0,0.0531972 0,0.0788811 0,0.0405492 0.00178,0.0813144 -0.00252,0.12170219 -7.998e-4,0.007517 -6.484e-4,0.0151752 -0.00252,0.022537 -0.00236,0.009266 -0.00751,0.0178256 -0.010088,0.0270449 -0.00684,0.0244449 -0.010641,0.049497 -0.015131,0.0743733 -0.00445,0.0246417 -0.00631,0.0499762 -0.01261,0.0743732 -0.0012,0.00463 -0.00385,0.00889 -0.00505,0.013523 -0.00134,0.00517 -0.00108,0.010623 -0.00252,0.015776 -0.00423,0.015113 -0.013049,0.029256 -0.015131,0.045075 -8.796e-4,0.00672 4.204e-4,0.013533 0,0.020284 -0.00106,0.017014 -0.00505,0.032531 -0.00505,0.049583 0,0.042821 0,0.085642 0,0.1284634 0,0.00486 0.00293,0.020102 -0.00252,0.022537 -0.00851,0.00381 -0.030037,-0.017188 -0.037828,-0.020283 -0.020706,-0.00822 -0.048681,-0.00451 -0.070612,-0.00451 -0.023537,0 -0.047074,0 -0.070612,0 -0.036146,0 -0.072293,0 -0.1084399,0 -0.00605,0 -0.066913,0.0022 -0.070612,0 -0.00448,-0.00267 -0.0084,-0.006 -0.01261,-0.00901 z"
     id="path3" />
  <path
     style="fill:#00ff00;stroke-width:0.213609"
     d="m 1.2958608,1.3096166 c 0,-0.011269 4.835e-4,-0.022545 0,-0.033806 -0.00118,-0.027345 -0.00863,-0.053743 -0.010088,-0.081135 -0.00111,-0.020923 0,-0.042143 0,-0.063105 0,-0.044324 0,-0.088647 0,-0.13297107 0,-0.0240396 0,-0.0480801 0,-0.0721197 0,-0.008266 -0.00152,-0.01664 0,-0.0247914 0.00313,-0.0167922 0.013645,-0.0328671 0.017653,-0.0495828 0.00142,-0.00592 0.0011,-0.0121077 0.00252,-0.0180299 0.00658,-0.0274645 0.022153,-0.0527531 0.032784,-0.078881 0.00611,-0.0150263 0.010568,-0.0302999 0.017653,-0.0450751 0.0012,-0.002488 0.00336,-0.00451 0.00505,-0.006762 0.00252,-0.005259 0.00538,-0.0103996 0.00757,-0.0157766 0.00477,-0.0117307 0.00876,-0.0240132 0.01261,-0.0360599 0.00118,-0.003686 3.163e-4,-0.007984 0.00252,-0.0112689 0.00973,-0.0144966 0.01367,-0.0205146 0.017653,-0.0383137 4.948e-4,-0.002213 -7.977e-4,-0.004625 0,-0.006762 9.565e-4,-0.002572 0.00398,-0.004228 0.00505,-0.006762 0.0015,-0.003587 0.00134,-0.007586 0.00252,-0.0112688 0.00103,-0.003231 0.00442,-0.005701 0.00505,-0.009015 6.914e-4,-0.003706 -0.00188,-0.007909 0,-0.0112688 0.00271,-0.004846 0.00817,-0.008383 0.010088,-0.0135225 0.00707,-0.018968 -0.00826,0.00574 0.00252,-0.0135224 0.00475,-0.008494 0.020786,-0.0284787 0.02774,-0.033806 0.00202,-0.001547 0.00569,-5.735e-4 0.00757,-0.002254 0.00188,-0.00168 0.00168,-0.004508 0.00252,-0.006761 0.00252,-0.001503 0.00542,-0.002592 0.00757,-0.004508 0.00133,-0.001187 0.00168,-0.003004 0.00252,-0.004508 0.00252,-0.002254 0.00478,-0.00477 0.00757,-0.006761 0.00147,-0.00105 0.00392,-9.1067e-4 0.00505,-0.002254 0.00225,-0.002688 0.00128,-0.009015 0.00505,-0.009015 8.406e-4,0 0,0.001503 0,0.002254 0,0.004508 3.141e-4,0.009024 0,0.0135225 -5.264e-4,0.007535 -6.891e-4,0.0151672 -0.00252,0.0225374 -0.00156,0.006266 -0.00582,0.0118029 -0.00757,0.01803 -0.010679,0.0381712 0.00221,0.001794 -0.00252,0.0292987 -0.00558,0.0324013 -0.00262,0.004775 -0.01261,0.0315524 -0.00161,0.004335 -9.052e-4,0.009187 -0.00252,0.0135225 -0.00178,0.004778 -0.00594,0.008695 -0.00757,0.013522 -9.651e-4,0.002877 0.00107,0.006167 0,0.009015 -0.00273,0.007335 -0.00909,0.013216 -0.01261,0.0202841 -0.00758,0.0152247 -0.011903,0.0325438 -0.020175,0.0473289 -0.00188,0.003358 -0.00595,0.005549 -0.00757,0.009015 -0.00567,0.012165 -0.011451,0.0364255 -0.015132,0.0495827 -0.00397,0.014202 -0.011232,0.0303052 -0.012609,0.0450751 -4.881e-4,0.005244 9.65e-4,0.0105889 0,0.0157766 -0.00584,0.0313005 -0.00432,-0.005793 -0.00757,0.0202834 -0.00121,0.009735 -0.00161,0.0195376 -0.00252,0.0292984 -8.967e-4,0.009564 0.00176,0.0198462 0,0.0292984 -3.095e-4,0.001657 -0.00207,0.002876 -0.00252,0.004507 -0.00218,0.007786 -0.0019,0.0150465 -0.00505,0.022537 -0.00132,0.003145 -0.00401,0.005785 -0.00505,0.009015 -0.00197,0.006164 -9.138e-4,0.0238849 -0.00252,0.031552 -0.00343,0.0163457 -0.010531,0.0328662 -0.01261,0.0495827 -3.706e-4,0.002985 8.157e-4,0.006096 0,0.009015 -9.138e-4,0.00326 -0.00413,0.00575 -0.00505,0.00901 -0.00163,0.00583 7.434e-4,0.012056 0,0.01803 -0.00161,0.013015 -0.00827,0.025314 -0.010088,0.038313 -8.338e-4,0.00596 0.00163,0.012199 0,0.01803 -0.00308,0.00551 -0.00608,0.00981 -0.00757,0.015776 -0.00303,0.012209 -0.00334,0.023897 -0.00505,0.03606 -0.00126,0.00894 -0.00629,0.017971 -0.00757,0.027045 -4.181e-4,0.00299 3.705e-4,0.00603 0,0.00901 -0.00425,0.034194 -0.00252,0.069126 -0.00252,0.103672 0,0.00631 0.00275,0.033399 0,0.038313 -0.00155,0.00276 -0.00854,-0.00251 -0.017653,-0.00901 z"
     id="path4" />
  <path
     style="fill:#4d4d4d;stroke:none;stroke-width:0.593386;stroke-linecap:square;stroke-linejoin:bevel;paint-order:fill markers stroke"
     d="m 0.01578363,0.03156727 c 0,0 9.97525647,9.97525673 9.97525647,9.97525673"
     id="path1"
     inkscape:path-effect="#path-effect1"
     inkscape:original-d="M 0.01578363,0.03156727 9.9910401,10.006824"
     transform="translate(0.02088043,-0.27979778)" />
  <path
     style="fill:#4d4d4d;stroke:none;stroke-width:0.593386;stroke-linecap:square;stroke-linejoin:bevel;paint-order:fill markers stroke"
     d="m 10.006824,10.038391 c 0,0 -0.2683221,-0.2367546 -0.2683221,-0.2367546"
     id="path2"
     inkscape:path-effect="#path-effect2"
     inkscape:original-d="M 10.006824,10.038391 9.7385019,9.8016364"
     transform="translate(0.02088043,-0.27979778)" />
</svg>
