<svg
   width="10"
   height="10"
   viewBox="0 0 2.6458333 2.6458333"
   version="1.1"
   id="svg1"
   xmlns:inkscape="http://www.inkscape.org/namespaces/inkscape"
   xmlns:sodipodi="http://sodipodi.sourceforge.net/DTD/sodipodi-0.dtd"
   xmlns="http://www.w3.org/2000/svg"
   xmlns:svg="http://www.w3.org/2000/svg"
   xmlns:rdf="http://www.w3.org/1999/02/22-rdf-syntax-ns#"
   xmlns:cc="http://creativecommons.org/ns#"
   xmlns:dc="http://purl.org/dc/elements/1.1/">
  <defs
     id="defs1" />
  <sodipodi:namedview
     id="base"
     pagecolor="#ffffff"
     bordercolor="#000000"
     borderopacity="0.3"
     inkscape:pageopacity="0.0"
     inkscape:pageshadow="2"
     inkscape:zoom="0.35"
     inkscape:cx="400"
     inkscape:cy="560"
     inkscape:document-units="mm"
     inkscape:showpageshadow="2"
     inkscape:pagecheckerboard="0"
     inkscape:deskcolor="#d1d1d1" />
  <metadata
     id="metadata1">
    <rdf:RDF>
      <cc:Work
         rdf:about="">
        <dc:format>image/svg+xml</dc:format>
        <dc:type
           rdf:resource="http://purl.org/dc/dcmitype/StillImage" />
      </cc:Work>
    </rdf:RDF>
  </metadata>
  <rect
     style="fill:none;stroke-width:0.264583"
     id="rect2"
     width="0.87702286"
     height="0.8770228"
     x="0.87702286"
     y="0.78548175" />
  <path
     style="fill:#008000;stroke-width:0.264583"
     d="m 0.91541107,2.0079985 c 7.2771e-4,-0.013581 -0.007123,-0.025371 -0.008859,-0.038388 -0.002499,-0.018739 -4.5439e-4,-0.04032 -0.002953,-0.059059 -0.002374,-0.017805 -0.006128,-0.0354 -0.008859,-0.053153 -0.002413,-0.015687 -0.00258,-0.031728 -0.005906,-0.047247 -0.006431,-0.03001 -0.007058,-0.00569 -0.0118118,-0.041341 -9.1017e-4,-0.00683 4.9213e-4,-0.013798 0,-0.020671 -4.9477e-4,-0.00694 -0.002458,-0.013728 -0.002953,-0.020671 -0.002498,-0.034972 0,-0.071242 0,-0.1063058 0,-0.02453 -0.003722,-0.052583 0,-0.076776 0.00279,-0.018135 0.0129138,-0.032906 0.0177175,-0.0502 0.003515,-0.012653 0.004706,-0.02593 0.008859,-0.038388 0.001815,-0.00544 0.006651,-0.00947 0.008859,-0.014765 0.007073,-0.016974 0.009227,-0.035618 0.0147648,-0.053153 0.009245,-0.029276 0.0209061,-0.057338 0.0324823,-0.085635 0.014505,-0.035456 0.0299749,-0.077667 0.047247,-0.1122117 0.00257,-0.00513 0.00648,-0.00954 0.00886,-0.014765 0.00258,-0.00567 0.00312,-0.012149 0.00591,-0.017718 0.0022,-0.0044 0.00633,-0.00759 0.00886,-0.011812 0.00999,-0.016647 0.019748,-0.033431 0.02953,-0.0502 0.020537,-0.035206 0.035818,-0.072736 0.059059,-0.10630585 0.00404,-0.005836 0.00787,-0.0118118 0.011812,-0.0177176 0.00295,-0.00689 0.00493,-0.0142862 0.00886,-0.0206706 0.00403,-0.006547 0.010389,-0.0113969 0.014765,-0.0177176 0.017001,-0.024557 0.028474,-0.0533102 0.047247,-0.0767764 0.00348,-0.004348 0.00833,-0.007464 0.011812,-0.0118118 0.015769,-0.0197117 0.028716,-0.0419827 0.044294,-0.0620117 0.017385,-0.022352 0.042538,-0.0464482 0.056106,-0.0708705 0.00257,-0.004634 0.00318,-0.0102195 0.00591,-0.0147648 0.00324,-0.005405 0.00832,-0.009521 0.011812,-0.0147648 0.016433,-0.0246502 0.02807,-0.0551681 0.038388,-0.0826823 0.00558,-0.0148894 0.01362,-0.028929 0.017718,-0.0442941 0.00205,-0.007668 7.726e-4,-0.015993 0.00295,-0.0236236 0.00765,-0.026758 0.00912,-0.007986 0.011812,-0.0295294 0.00356,-0.0284805 -0.00225,-0.05702 0.00295,-0.0856352 0.00305,-0.016777 0.00802,-0.0232169 0.014765,-0.0383882 0.00187,-0.004212 0.005,-0.0232529 0.00591,-0.0265764 0.00573,-0.0210095 0.011812,-0.0401495 0.011812,-0.0620117 0,-9.8425e-4 0,0.001968 0,0.002953 0,0.005906 0,0.0118118 0,0.0177176 0,0.0428887 -7.488e-4,-0.0300251 0.00591,0.0531529 9.419e-4,0.0117742 -5.371e-4,0.0236358 0,0.0354353 4.498e-4,0.009882 0.00252,0.0196464 0.00295,0.0295294 0.00123,0.0283686 0,0.0572089 0,0.0856352 0,0.17914496 0,0.35828994 0,0.53743485 0,0.029637 0.0012,0.031401 -0.00295,0.059059 -0.00163,0.010883 -0.00495,0.021519 -0.00591,0.032482 -0.00292,0.033542 0,0.069701 0,0.1033529 0,0.053129 0.00209,0.1065411 -0.00295,0.1594587 -9.366e-4,0.00985 -7.593e-4,0.019883 -0.00295,0.029529 -0.00276,0.012141 -0.00879,0.023356 -0.011812,0.035435 -0.00801,0.032029 -0.01246,0.064853 -0.017718,0.097447 -0.00521,0.032287 -0.00739,0.065481 -0.014765,0.097447 -0.0014,0.00607 -0.00451,0.011652 -0.00591,0.017718 -0.00157,0.00678 -0.00126,0.013918 -0.00295,0.020671 -0.00495,0.019802 -0.015279,0.038333 -0.017718,0.059059 -0.00103,0.0088 4.922e-4,0.017731 0,0.026577 -0.00124,0.022292 -0.00591,0.042624 -0.00591,0.064965 0,0.056106 0,0.1122117 0,0.1683175 0,0.00637 0.00343,0.026338 -0.00295,0.029529 -0.00997,0.00499 -0.035171,-0.022521 -0.044294,-0.026576 -0.024245,-0.010776 -0.057002,-0.00591 -0.082682,-0.00591 -0.027561,0 -0.055121,0 -0.082682,0 -0.042325,0 -0.084651,0 -0.1269763,0 -0.00708,0 -0.0783509,0.00289 -0.0826823,0 -0.005244,-0.0035 -0.009843,-0.00787 -0.0147647,-0.011812 z"
     id="path3" />
  <path
     style="fill:#00ff00;stroke-width:0.264583"
     d="m 1.1368815,1.9577985 c 0,-0.014765 5.662e-4,-0.02954 0,-0.044294 -0.00138,-0.035829 -0.010103,-0.070416 -0.011812,-0.1063058 -0.0013,-0.027414 0,-0.055217 0,-0.082682 0,-0.058075 0,-0.116149 0,-0.1742235 0,-0.031498 0,-0.062996 0,-0.094494 0,-0.010827 -0.00178,-0.021802 0,-0.032482 0.00367,-0.022002 0.015977,-0.043064 0.020671,-0.064965 0.00166,-0.00776 0.00129,-0.015864 0.00295,-0.023624 0.00771,-0.035985 0.02594,-0.069119 0.038388,-0.1033528 0.00716,-0.019688 0.012374,-0.0397 0.020671,-0.059059 0.0014,-0.00326 0.00394,-0.00591 0.00591,-0.00886 0.00295,-0.00689 0.0063,-0.013626 0.00886,-0.020671 0.00559,-0.01537 0.010255,-0.031463 0.014765,-0.047247 0.00138,-0.00483 3.704e-4,-0.010461 0.00295,-0.014765 0.011397,-0.018994 0.016007,-0.026879 0.020671,-0.0502 5.794e-4,-0.0029 -9.34e-4,-0.00606 0,-0.00886 0.00112,-0.00337 0.00466,-0.00554 0.00591,-0.00886 0.00176,-0.0047 0.00157,-0.00994 0.00295,-0.0147648 0.00121,-0.004233 0.00518,-0.00747 0.00591,-0.0118118 8.096e-4,-0.004855 -0.0022,-0.0103627 0,-0.0147648 0.00317,-0.006349 0.00957,-0.0109839 0.011812,-0.0177176 0.00828,-0.0248526 -0.00967,0.007521 0.00295,-0.0177176 0.00556,-0.0111292 0.024339,-0.0373139 0.032482,-0.0442939 0.00236,-0.002027 0.00666,-7.5142e-4 0.00886,-0.002953 0.0022,-0.002201 0.00197,-0.005906 0.00295,-0.008859 0.00295,-0.001969 0.00635,-0.003396 0.00886,-0.005906 0.00156,-0.001556 0.00197,-0.003937 0.00295,-0.005906 0.00295,-0.002953 0.0056,-0.00625 0.00886,-0.008859 0.00172,-0.001376 0.00459,-0.001193 0.00591,-0.002953 0.00264,-0.003522 0.0015,-0.0118118 0.00591,-0.0118118 9.843e-4,0 0,0.001969 0,0.002953 0,0.005906 3.678e-4,0.0118232 0,0.0177176 -6.164e-4,0.009873 -8.069e-4,0.0198726 -0.00295,0.0295294 -0.00183,0.00821 -0.00682,0.0154646 -0.00886,0.0236236 -0.012504,0.0500133 0.00259,0.00235 -0.00295,0.0383882 -0.00653,0.0424533 -0.00307,0.006257 -0.014765,0.0413411 -0.00189,0.00568 -0.00106,0.0120375 -0.00295,0.0177176 -0.00209,0.00626 -0.00696,0.011393 -0.00886,0.017717 -0.00113,0.00377 0.00125,0.00808 0,0.011812 -0.0032,0.00961 -0.010649,0.017316 -0.014765,0.026577 -0.00887,0.019948 -0.013938,0.04264 -0.023624,0.062012 -0.0022,0.0044 -0.00697,0.00727 -0.00886,0.011812 -0.00664,0.015939 -0.013408,0.047726 -0.017718,0.064965 -0.00465,0.018608 -0.013152,0.039707 -0.014765,0.059059 -5.715e-4,0.00687 0.00113,0.013874 0,0.020671 -0.00684,0.041011 -0.00506,-0.00759 -0.00886,0.026576 -0.00142,0.012755 -0.00189,0.025599 -0.00295,0.038388 -0.00105,0.012531 0.00206,0.026003 0,0.038388 -3.625e-4,0.00217 -0.00242,0.00377 -0.00295,0.00591 -0.00255,0.010206 -0.00223,0.019714 -0.00591,0.029529 -0.00155,0.00412 -0.0047,0.00758 -0.00591,0.011812 -0.00231,0.00808 -0.00107,0.031295 -0.00295,0.041341 -0.00402,0.021417 -0.012331,0.043062 -0.014765,0.064965 -4.339e-4,0.00391 9.552e-4,0.00799 0,0.011812 -0.00107,0.00427 -0.00484,0.00754 -0.00591,0.011812 -0.00191,0.00764 8.704e-4,0.015797 0,0.023624 -0.00189,0.017053 -0.00968,0.033168 -0.011812,0.0502 -9.763e-4,0.00781 0.00191,0.015984 0,0.023624 -0.00361,0.00722 -0.00712,0.01285 -0.00886,0.020671 -0.00355,0.015997 -0.00391,0.031311 -0.00591,0.047247 -0.00147,0.011719 -0.00737,0.023546 -0.00886,0.035435 -4.895e-4,0.00391 4.339e-4,0.0079 0,0.011812 -0.00498,0.044802 -0.00295,0.090572 -0.00295,0.1358349 0,0.00826 0.00322,0.04376 0,0.0502 -0.00181,0.00361 -0.010004,-0.00328 -0.020671,-0.011812 z"
     id="path4" />
</svg>
