
<svg
   width="50"
   height="50"
   viewBox="0 0 13.229166 13.229167"
   version="1.1"
   id="svg1"
   inkscape:version="1.3.2 (091e20e, 2023-11-25, custom)"
   sodipodi:docname="mower.svg"
   xmlns:inkscape="http://www.inkscape.org/namespaces/inkscape"
   xmlns:sodipodi="http://sodipodi.sourceforge.net/DTD/sodipodi-0.dtd"
   xmlns="http://www.w3.org/2000/svg"
   xmlns:svg="http://www.w3.org/2000/svg">
  <sodipodi:namedview
     id="namedview1"
     pagecolor="#ffffff"
     bordercolor="#000000"
     borderopacity="0.25"
     inkscape:showpageshadow="2"
     inkscape:pageopacity="0.0"
     inkscape:pagecheckerboard="0"
     inkscape:deskcolor="#d1d1d1"
     inkscape:document-units="mm"
     inkscape:zoom="17.23266"
     inkscape:cx="11.431781"
     inkscape:cy="28.753541"
     inkscape:window-width="2560"
     inkscape:window-height="1387"
     inkscape:window-x="-8"
     inkscape:window-y="-8"
     inkscape:window-maximized="1"
     inkscape:current-layer="layer1" />
  <defs
     id="defs1" />
  <g
     inkscape:label="Vrstva 1"
     inkscape:groupmode="layer"
     id="layer1">
    <ellipse
       style="fill:#c87137;stroke-width:0.149078;stroke-linecap:square;paint-order:fill markers stroke"
       id="path5"
       cx="6.8656864"
       cy="6.437757"
       rx="3.2168224"
       ry="4.387794" />
    <rect
       style="fill:#786721;stroke:#7c5623;stroke-width:0.109196;stroke-linecap:square;stroke-opacity:1;paint-order:fill markers stroke"
       id="rect2"
       width="2.4726219"
       height="1.4963188"
       x="9.6901827"
       y="2.9882243"
       ry="0.17682375"
       transform="matrix(0.99955494,0.02983172,0.00598402,0.9999821,0,0)" />
    <rect
       style="fill:#c87137;stroke-width:0.130085;stroke-linecap:square;paint-order:fill markers stroke"
       id="rect3-5"
       width="0.10412616"
       height="1.2393057"
       x="10.072093"
       y="2.7272077"
       ry="0.030412409"
       transform="matrix(0.99806819,0.06212799,-0.01124982,0.99993672,0,0)" />
    <rect
       style="fill:#c87137;stroke-width:0.130085;stroke-linecap:square;paint-order:fill markers stroke"
       id="rect3-9"
       width="0.10412616"
       height="1.2393057"
       x="10.372458"
       y="2.7326038"
       ry="0.030412409"
       transform="matrix(0.99806819,0.06212799,-0.01124982,0.99993672,0,0)" />
    <rect
       style="fill:#c87137;stroke-width:0.130085;stroke-linecap:square;paint-order:fill markers stroke"
       id="rect3-0-7"
       width="0.10412616"
       height="1.2393057"
       x="10.680391"
       y="2.7272072"
       ry="0.030412409"
       transform="matrix(0.99806819,0.06212799,-0.01124982,0.99993672,0,0)" />
    <rect
       style="fill:#c87137;stroke-width:0.130085;stroke-linecap:square;paint-order:fill markers stroke"
       id="rect3-5-6"
       width="0.10412616"
       height="1.2393057"
       x="10.97675"
       y="2.7327647"
       ry="0.030412409"
       transform="matrix(0.99806819,0.06212799,-0.01124982,0.99993672,0,0)" />
    <rect
       style="fill:#c87137;stroke-width:0.130085;stroke-linecap:square;paint-order:fill markers stroke"
       id="rect3-3"
       width="0.10412616"
       height="1.2393057"
       x="11.232389"
       y="2.7326038"
       ry="0.030412409"
       transform="matrix(0.99806819,0.06212799,-0.01124982,0.99993672,0,0)" />
    <rect
       style="fill:#c87137;stroke-width:0.130085;stroke-linecap:square;paint-order:fill markers stroke"
       id="rect3-0-3"
       width="0.10412616"
       height="1.2393057"
       x="11.540323"
       y="2.7272072"
       ry="0.030412409"
       transform="matrix(0.99806819,0.06212799,-0.01124982,0.99993672,0,0)" />
    <rect
       style="fill:#c87137;stroke-width:0.130085;stroke-linecap:square;paint-order:fill markers stroke"
       id="rect3-5-9"
       width="0.10412616"
       height="1.2393057"
       x="11.836682"
       y="2.7327647"
       ry="0.030412409"
       transform="matrix(0.99806819,0.06212799,-0.01124982,0.99993672,0,0)" />
    <rect
       style="fill:#c87137;stroke-width:0.130085;stroke-linecap:square;paint-order:fill markers stroke"
       id="rect3-0-3-6"
       width="0.10412616"
       height="1.2393057"
       x="12.076302"
       y="2.7272072"
       ry="0.030412409"
       transform="matrix(0.99806819,0.06212799,-0.01124982,0.99993672,0,0)" />
    <rect
       style="fill:#786721;stroke:#7c5623;stroke-width:0.10917;stroke-linecap:square;stroke-opacity:1;paint-order:fill markers stroke"
       id="rect2-4-8"
       width="2.4723613"
       height="1.4957581"
       x="9.7213144"
       y="8.0852594"
       ry="0.17675747"
       transform="matrix(0.99943847,0.03350728,-0.01554229,0.99987921,0,0)" />
    <rect
       style="fill:#c87137;stroke-width:0.130025;stroke-linecap:square;paint-order:fill markers stroke"
       id="rect3-5-2-7"
       width="0.10401973"
       height="1.2394375"
       x="10.11631"
       y="7.9435544"
       ry="0.030415643"
       transform="matrix(0.99836723,0.05712165,-0.02956149,0.99956296,0,0)" />
    <rect
       style="fill:#c87137;stroke-width:0.130025;stroke-linecap:square;paint-order:fill markers stroke"
       id="rect3-9-7-3"
       width="0.10401973"
       height="1.2394375"
       x="10.416368"
       y="7.9489508"
       ry="0.030415643"
       transform="matrix(0.99836723,0.05712165,-0.02956149,0.99956296,0,0)" />
    <rect
       style="fill:#c87137;stroke-width:0.130025;stroke-linecap:square;paint-order:fill markers stroke"
       id="rect3-0-7-7-0"
       width="0.10401973"
       height="1.2394375"
       x="10.723987"
       y="7.9435544"
       ry="0.030415643"
       transform="matrix(0.99836723,0.05712165,-0.02956149,0.99956296,0,0)" />
    <rect
       style="fill:#c87137;stroke-width:0.130025;stroke-linecap:square;paint-order:fill markers stroke"
       id="rect3-5-6-1-7"
       width="0.10401973"
       height="1.2394375"
       x="11.020042"
       y="7.9491124"
       ry="0.030415643"
       transform="matrix(0.99836723,0.05712165,-0.02956149,0.99956296,0,0)" />
    <rect
       style="fill:#c87137;stroke-width:0.130025;stroke-linecap:square;paint-order:fill markers stroke"
       id="rect3-3-8-6"
       width="0.10401973"
       height="1.2394375"
       x="11.27542"
       y="7.9489508"
       ry="0.030415643"
       transform="matrix(0.99836723,0.05712165,-0.02956149,0.99956296,0,0)" />
    <rect
       style="fill:#c87137;stroke-width:0.130025;stroke-linecap:square;paint-order:fill markers stroke"
       id="rect3-0-3-1-2"
       width="0.10401973"
       height="1.2394375"
       x="11.583039"
       y="7.9435544"
       ry="0.030415643"
       transform="matrix(0.99836723,0.05712165,-0.02956149,0.99956296,0,0)" />
    <rect
       style="fill:#c87137;stroke-width:0.130025;stroke-linecap:square;paint-order:fill markers stroke"
       id="rect3-5-9-1-1"
       width="0.10401973"
       height="1.2394375"
       x="11.879095"
       y="7.9491124"
       ry="0.030415643"
       transform="matrix(0.99836723,0.05712165,-0.02956149,0.99956296,0,0)" />
    <rect
       style="fill:#c87137;stroke-width:0.130025;stroke-linecap:square;paint-order:fill markers stroke"
       id="rect3-0-3-6-8-7"
       width="0.10401973"
       height="1.2394375"
       x="12.11847"
       y="7.9435544"
       ry="0.030415643"
       transform="matrix(0.99836723,0.05712165,-0.02956149,0.99956296,0,0)" />
    <rect
       style="fill:#786721;stroke:#7c5623;stroke-width:0.122195;stroke-linecap:square;stroke-opacity:1;paint-order:fill markers stroke"
       id="rect2-4"
       width="3.3056238"
       height="1.4015836"
       x="1.1242764"
       y="8.6173153"
       ry="0.16562863"
       transform="matrix(0.99995993,0.00895204,-0.00845777,0.99996423,0,0)" />
    <rect
       style="fill:#c87137;stroke-width:0.130016;stroke-linecap:square;paint-order:fill markers stroke"
       id="rect3-6"
       width="0.103991"
       height="1.2396147"
       x="1.4731897"
       y="8.5957623"
       ry="0.030419994"
       transform="matrix(0.99893908,0.04605128,-0.02382238,0.99971621,0,0)" />
    <rect
       style="fill:#c87137;stroke-width:0.130016;stroke-linecap:square;paint-order:fill markers stroke"
       id="rect3-0-75"
       width="0.103991"
       height="1.2396147"
       x="1.780724"
       y="8.5903645"
       ry="0.030419994"
       transform="matrix(0.99893908,0.04605128,-0.02382238,0.99971621,0,0)" />
    <rect
       style="fill:#c87137;stroke-width:0.130016;stroke-linecap:square;paint-order:fill markers stroke"
       id="rect3-5-2"
       width="0.103991"
       height="1.2396147"
       x="2.0766983"
       y="8.5959234"
       ry="0.030419994"
       transform="matrix(0.99893908,0.04605128,-0.02382238,0.99971621,0,0)" />
    <rect
       style="fill:#c87137;stroke-width:0.130016;stroke-linecap:square;paint-order:fill markers stroke"
       id="rect3-9-7"
       width="0.103991"
       height="1.2396147"
       x="2.3766723"
       y="8.6013212"
       ry="0.030419994"
       transform="matrix(0.99893908,0.04605128,-0.02382238,0.99971621,0,0)" />
    <rect
       style="fill:#c87137;stroke-width:0.130016;stroke-linecap:square;paint-order:fill markers stroke"
       id="rect3-0-7-7"
       width="0.103991"
       height="1.2396147"
       x="2.6842067"
       y="8.5959234"
       ry="0.030419994"
       transform="matrix(0.99893908,0.04605128,-0.02382238,0.99971621,0,0)" />
    <rect
       style="fill:#c87137;stroke-width:0.130016;stroke-linecap:square;paint-order:fill markers stroke"
       id="rect3-5-6-1"
       width="0.103991"
       height="1.2396147"
       x="2.9801803"
       y="8.6014824"
       ry="0.030419994"
       transform="matrix(0.99893908,0.04605128,-0.02382238,0.99971621,0,0)" />
    <rect
       style="fill:#c87137;stroke-width:0.130016;stroke-linecap:square;paint-order:fill markers stroke"
       id="rect3-3-8"
       width="0.103991"
       height="1.2396147"
       x="3.2354877"
       y="8.6013212"
       ry="0.030419994"
       transform="matrix(0.99893908,0.04605128,-0.02382238,0.99971621,0,0)" />
    <rect
       style="fill:#c87137;stroke-width:0.130016;stroke-linecap:square;paint-order:fill markers stroke"
       id="rect3-0-3-1"
       width="0.103991"
       height="1.2396147"
       x="3.5430222"
       y="8.5959234"
       ry="0.030419994"
       transform="matrix(0.99893908,0.04605128,-0.02382238,0.99971621,0,0)" />
    <rect
       style="fill:#c87137;stroke-width:0.130016;stroke-linecap:square;paint-order:fill markers stroke"
       id="rect3-5-9-1"
       width="0.103991"
       height="1.2396147"
       x="3.8389964"
       y="8.6014824"
       ry="0.030419994"
       transform="matrix(0.99893908,0.04605128,-0.02382238,0.99971621,0,0)" />
    <rect
       style="fill:#c87137;stroke-width:0.130016;stroke-linecap:square;paint-order:fill markers stroke"
       id="rect3-0-3-6-8"
       width="0.103991"
       height="1.2396147"
       x="4.0783048"
       y="8.5959234"
       ry="0.030419994"
       transform="matrix(0.99893908,0.04605128,-0.02382238,0.99971621,0,0)" />
    <rect
       style="fill:#c87137;stroke-width:0.130016;stroke-linecap:square;paint-order:fill markers stroke"
       id="rect3-5-9-4-4"
       width="0.103991"
       height="1.2396147"
       x="4.374279"
       y="8.6014824"
       ry="0.030419994"
       transform="matrix(0.99893908,0.04605128,-0.02382238,0.99971621,0,0)" />
    <rect
       style="fill:#786721;stroke:#7c5623;stroke-width:0.121011;stroke-linecap:square;stroke-opacity:1;paint-order:fill markers stroke"
       id="rect2-4-8-8"
       width="3.3068392"
       height="1.374078"
       x="0.94896412"
       y="3.2437842"
       ry="0.16237825"
       transform="matrix(0.99999853,0.00171571,-0.00168776,0.99999858,0,0)" />
    <rect
       style="fill:#c87137;stroke-width:0.13001;stroke-linecap:square;paint-order:fill markers stroke"
       id="rect3-6-6-7"
       width="0.10397087"
       height="1.2397391"
       x="1.2112807"
       y="3.2135739"
       ry="0.030423043"
       transform="matrix(0.99933979,0.03633152,-0.01878881,0.99982347,0,0)" />
    <rect
       style="fill:#c87137;stroke-width:0.13001;stroke-linecap:square;paint-order:fill markers stroke"
       id="rect3-0-75-8-6"
       width="0.10397087"
       height="1.2397391"
       x="1.5187556"
       y="3.2081761"
       ry="0.030423043"
       transform="matrix(0.99933979,0.03633152,-0.01878881,0.99982347,0,0)" />
    <rect
       style="fill:#c87137;stroke-width:0.13001;stroke-linecap:square;paint-order:fill markers stroke"
       id="rect3-5-2-7-1"
       width="0.10397087"
       height="1.2397391"
       x="1.8146725"
       y="3.2137356"
       ry="0.030423043"
       transform="matrix(0.99933979,0.03633152,-0.01878881,0.99982347,0,0)" />
    <rect
       style="fill:#c87137;stroke-width:0.13001;stroke-linecap:square;paint-order:fill markers stroke"
       id="rect3-9-7-3-0"
       width="0.10397087"
       height="1.2397391"
       x="2.1145885"
       y="3.2191336"
       ry="0.030423043"
       transform="matrix(0.99933979,0.03633152,-0.01878881,0.99982347,0,0)" />
    <rect
       style="fill:#c87137;stroke-width:0.13001;stroke-linecap:square;paint-order:fill markers stroke"
       id="rect3-0-7-7-0-5"
       width="0.10397087"
       height="1.2397391"
       x="2.4220634"
       y="3.2137349"
       ry="0.030423043"
       transform="matrix(0.99933979,0.03633152,-0.01878881,0.99982347,0,0)" />
    <rect
       style="fill:#c87137;stroke-width:0.13001;stroke-linecap:square;paint-order:fill markers stroke"
       id="rect3-5-6-1-7-7"
       width="0.10397087"
       height="1.2397391"
       x="2.7179797"
       y="3.2192945"
       ry="0.030423043"
       transform="matrix(0.99933979,0.03633152,-0.01878881,0.99982347,0,0)" />
    <rect
       style="fill:#c87137;stroke-width:0.13001;stroke-linecap:square;paint-order:fill markers stroke"
       id="rect3-3-8-6-4"
       width="0.10397087"
       height="1.2397391"
       x="2.9732378"
       y="3.2191336"
       ry="0.030423043"
       transform="matrix(0.99933979,0.03633152,-0.01878881,0.99982347,0,0)" />
    <rect
       style="fill:#c87137;stroke-width:0.13001;stroke-linecap:square;paint-order:fill markers stroke"
       id="rect3-0-3-1-2-8"
       width="0.10397087"
       height="1.2397391"
       x="3.2807126"
       y="3.2137349"
       ry="0.030423043"
       transform="matrix(0.99933979,0.03633152,-0.01878881,0.99982347,0,0)" />
    <rect
       style="fill:#c87137;stroke-width:0.13001;stroke-linecap:square;paint-order:fill markers stroke"
       id="rect3-5-9-1-1-8"
       width="0.10397087"
       height="1.2397391"
       x="3.5766294"
       y="3.2192945"
       ry="0.030423043"
       transform="matrix(0.99933979,0.03633152,-0.01878881,0.99982347,0,0)" />
    <rect
       style="fill:#c87137;stroke-width:0.13001;stroke-linecap:square;paint-order:fill markers stroke"
       id="rect3-0-3-6-8-7-6"
       width="0.10397087"
       height="1.2397391"
       x="3.8158913"
       y="3.2137349"
       ry="0.030423043"
       transform="matrix(0.99933979,0.03633152,-0.01878881,0.99982347,0,0)" />
    <rect
       style="fill:#c87137;stroke-width:0.13001;stroke-linecap:square;paint-order:fill markers stroke"
       id="rect3-5-9-4-4-1-0"
       width="0.10397087"
       height="1.2397391"
       x="4.1118083"
       y="3.2192945"
       ry="0.030423043"
       transform="matrix(0.99933979,0.03633152,-0.01878881,0.99982347,0,0)" />
    <rect
       style="fill:#786721;stroke:#7c5623;stroke-width:0.304;stroke-linecap:square;stroke-opacity:1;paint-order:fill markers stroke;stroke-dasharray:none"
       id="rect1"
       width="8.6458893"
       height="5.9277959"
       x="2.3255305"
       y="3.5135865"
       ry="2.233885" />
    <rect
       style="fill:#241f1c;stroke-width:0.0585185;stroke-linecap:square;paint-order:fill markers stroke"
       id="rect4"
       width="1.2550694"
       height="1.6670473"
       x="6.2268453"
       y="5.698596"
       ry="0.83352363" />
  </g>
</svg>
