<svg
   width="10"
   height="10"
   viewBox="0 0 2.6458333 2.6458333"
   version="1.1"
   id="svg1"
   inkscape:export-filename="leaf_ink.svg"
   inkscape:export-xdpi="96"
   inkscape:export-ydpi="96"
   xmlns:inkscape="http://www.inkscape.org/namespaces/inkscape"
   xmlns:sodipodi="http://sodipodi.sourceforge.net/DTD/sodipodi-0.dtd"
   xmlns="http://www.w3.org/2000/svg"
   xmlns:svg="http://www.w3.org/2000/svg"
   xmlns:rdf="http://www.w3.org/1999/02/22-rdf-syntax-ns#"
   xmlns:cc="http://creativecommons.org/ns#"
   xmlns:dc="http://purl.org/dc/elements/1.1/">
  <defs
     id="defs1" />
  <sodipodi:namedview
     id="base"
     pagecolor="#ffffff"
     bordercolor="#000000"
     borderopacity="0.3"
     inkscape:pageopacity="0.0"
     inkscape:pageshadow="2"
     inkscape:zoom="0.35"
     inkscape:cx="400"
     inkscape:cy="560"
     inkscape:document-units="mm"
     inkscape:showpageshadow="2"
     inkscape:pagecheckerboard="0"
     inkscape:deskcolor="#d1d1d1" />
  <metadata
     id="metadata1">
    <rdf:RDF>
      <cc:Work
         rdf:about="">
        <dc:format>image/svg+xml</dc:format>
        <dc:type
           rdf:resource="http://purl.org/dc/dcmitype/StillImage" />
      </cc:Work>
    </rdf:RDF>
  </metadata>
  <path
     style="fill:#008000;stroke-width:0.264583"
     d="m 0.88292875,2.0641043 c 0.0169262,-0.00122 0.030803,5.689e-4 0.0442941,0.011812 0.003208,0.00267 0.004961,0.00736 0.008859,0.00886 0.009369,0.0036 0.0195794,0.00458 0.0295294,0.00591 0.0188735,0.00252 0.0399951,0 0.0590589,0 0.026227,0 0.053579,0.00218 0.079729,0 0.063785,-0.00532 -0.023108,3.492e-4 0.041341,-0.00886 0.020634,-0.00295 0.044092,0 0.064965,0 0.056106,0 0.1122116,0 0.1683176,0 0.011606,0 0.029292,2.373e-4 0.038388,-0.00886 0.00156,-0.00156 0.0014,-0.00435 0.00295,-0.00591 0.0036,-0.0036 0.0066,-0.00138 0.00886,-0.00591 0.0049,-0.00981 0.00295,-0.022 0.00295,-0.032482 0,-0.0048 0.00204,-0.013632 0,-0.017718 -0.01773,-0.03546 0.00467,0.012701 -0.011812,-0.014765 -0.0016,-0.00267 -0.00123,-0.00627 -0.00295,-0.00886 -0.028821,-0.043231 -0.083421,-0.05228 -0.1299293,-0.064965 -0.012012,-0.00328 -0.023356,-0.00879 -0.035435,-0.011812 -0.029829,-0.00746 -0.062066,-0.00592 -0.091541,-0.014765 -0.00508,-0.00152 -0.00957,-0.00487 -0.014764,-0.00591 -0.00965,-0.00193 -0.019855,0.00182 -0.029529,0 -0.00783,-0.00147 -0.03467,-0.010554 -0.047247,-0.011812 -0.021146,-0.00211 -0.043666,0 -0.064965,0 -0.0181246,0 -0.0380746,-0.00225 -0.0561061,0 -0.0109699,0.00137 -0.0219059,0.00584 -0.0324823,0.00886 -0.005757,0.00165 -0.0123624,2.752e-4 -0.0177176,0.00295 -0.00249,0.00125 -0.003416,0.00466 -0.005906,0.00591 -0.009101,0.00455 -0.0145719,0.00266 -0.0206706,0.011812 -9.2339e-4,0.00139 -0.002029,0.00747 -0.002953,0.00886 -0.005617,0.00843 -0.008837,0.00877 -0.0118118,0.020671 -0.002085,0.00834 0.001688,0.018137 0,0.026576 -0.00427,0.021351 -0.002953,0.043116 -0.002953,0.064965 0,0.00699 -0.002503,0.036337 0,0.041341 0.007795,0.015591 0.0241237,-0.00158 0.0295293,-0.00591 z"
     id="path4" />
</svg>
