<?xml version="1.0" encoding="UTF-8" standalone="no"?>
<svg
   width="10"
   height="10"
   viewBox="0 0 2.6458333 2.6458333"
   version="1.1"
   id="svg1"
   inkscape:export-filename="leaf_ink.svg"
   inkscape:export-xdpi="96"
   inkscape:export-ydpi="96"
   sodipodi:docname="pattern.svg"
   inkscape:version="1.3.2 (091e20e, 2023-11-25, custom)"
   xmlns:inkscape="http://www.inkscape.org/namespaces/inkscape"
   xmlns:sodipodi="http://sodipodi.sourceforge.net/DTD/sodipodi-0.dtd"
   xmlns="http://www.w3.org/2000/svg"
   xmlns:svg="http://www.w3.org/2000/svg"
   xmlns:rdf="http://www.w3.org/1999/02/22-rdf-syntax-ns#"
   xmlns:cc="http://creativecommons.org/ns#"
   xmlns:dc="http://purl.org/dc/elements/1.1/">
  <defs
     id="defs1" />
  <sodipodi:namedview
     id="base"
     pagecolor="#ffffff"
     bordercolor="#000000"
     borderopacity="0.3"
     inkscape:pageopacity="0.0"
     inkscape:pageshadow="2"
     inkscape:zoom="63.356767"
     inkscape:cx="5.1454645"
     inkscape:cy="5.5637308"
     inkscape:document-units="px"
     inkscape:showpageshadow="2"
     inkscape:pagecheckerboard="0"
     inkscape:deskcolor="#d1d1d1"
     showguides="true"
     inkscape:window-width="2560"
     inkscape:window-height="1387"
     inkscape:window-x="-8"
     inkscape:window-y="-8"
     inkscape:window-maximized="1"
     inkscape:current-layer="svg1">
    <sodipodi:guide
       position="1.3196433,3.0091528"
       orientation="1,0"
       id="guide1"
       inkscape:locked="false" />
    <sodipodi:guide
       position="-2.271791,3.7149114"
       orientation="0.70710678,-0.70710678"
       id="guide2"
       inkscape:locked="false" />
    <sodipodi:guide
       position="-1.7372519,1.3220139"
       orientation="0,-1"
       id="guide3"
       inkscape:locked="false" />
  </sodipodi:namedview>
  <metadata
     id="metadata1">
    <rdf:RDF>
      <cc:Work
         rdf:about="">
        <dc:format>image/svg+xml</dc:format>
        <dc:type
           rdf:resource="http://purl.org/dc/dcmitype/StillImage" />
      </cc:Work>
    </rdf:RDF>
  </metadata>
  <path
     style="fill:#008000;stroke-width:0.264583"
     d="m 1.087557,1.3834022 c 0.016926,-0.00122 0.030803,5.689e-4 0.044294,0.011812 0.00321,0.00267 0.00496,0.00736 0.00886,0.00886 0.00937,0.0036 0.019579,0.00458 0.029529,0.00591 0.018873,0.00252 0.039995,0 0.059059,0 0.026227,0 0.053579,0.00218 0.079729,0 0.063785,-0.00532 -0.023108,3.492e-4 0.041341,-0.00886 0.020634,-0.00295 0.044092,0 0.064965,0 0.056106,0 0.1122116,0 0.1683176,0 0.011606,0 0.029292,2.373e-4 0.038388,-0.00886 0.00156,-0.00156 0.0014,-0.00435 0.00295,-0.00591 0.0036,-0.0036 0.0066,-0.00138 0.00886,-0.00591 0.0049,-0.00981 0.00295,-0.022 0.00295,-0.032482 0,-0.0048 0.00204,-0.013632 0,-0.017718 -0.01773,-0.03546 0.00467,0.012701 -0.011812,-0.014765 -0.0016,-0.00267 -0.00123,-0.00627 -0.00295,-0.00886 -0.028821,-0.043231 -0.083421,-0.05228 -0.1299293,-0.064965 -0.012012,-0.00328 -0.023356,-0.00879 -0.035435,-0.011812 -0.029829,-0.00746 -0.062066,-0.00592 -0.091541,-0.014765 -0.00508,-0.00152 -0.00957,-0.00487 -0.014764,-0.00591 -0.00965,-0.00193 -0.019855,0.00182 -0.029529,0 -0.00783,-0.00147 -0.03467,-0.010554 -0.047247,-0.011812 -0.021146,-0.00211 -0.043666,0 -0.064965,0 -0.018125,0 -0.038075,-0.00225 -0.056106,0 -0.01097,0.00137 -0.021906,0.00584 -0.032482,0.00886 -0.00576,0.00165 -0.012362,2.752e-4 -0.017718,0.00295 -0.00249,0.00125 -0.00342,0.00466 -0.00591,0.00591 -0.0091,0.00455 -0.014572,0.00266 -0.020671,0.011812 -9.234e-4,0.00139 -0.00203,0.00747 -0.00295,0.00886 -0.00562,0.00843 -0.00884,0.00877 -0.011812,0.020671 -0.00209,0.00834 0.00169,0.018137 0,0.026576 -0.00427,0.021351 -0.00295,0.043116 -0.00295,0.064965 0,0.00699 -0.0025,0.036337 0,0.041341 0.00779,0.015591 0.024124,-0.00158 0.029529,-0.00591 z"
     id="path4" />
</svg>
